<svg width="107" height="59" viewBox="0 0 107 59" fill="none" xmlns="http://www.w3.org/2000/svg">
<rect x="101" y="16" width="6" height="38" rx="3" fill="white"/>
<path d="M2.34375 42.2188V39.5625C4.6875 40.3958 7.21875 40.8125 9.9375 40.8125C13.7812 40.8125 15.7031 39.4062 15.7031 36.5938C15.7031 34.1979 14.2865 33 11.4531 33H8.57812C3.90104 33 1.5625 30.9688 1.5625 26.9062C1.5625 22.6354 4.55729 20.5 10.5469 20.5C13.151 20.5 15.5729 20.8125 17.8125 21.4375V24.0938C15.5729 23.2604 13.151 22.8438 10.5469 22.8438C6.48438 22.8438 4.45312 24.1979 4.45312 26.9062C4.45312 29.3021 5.82812 30.5 8.57812 30.5H11.4531C16.2135 30.5 18.5938 32.5312 18.5938 36.5938C18.5938 40.9688 15.7083 43.1562 9.9375 43.1562C7.21875 43.1562 4.6875 42.8438 2.34375 42.2188ZM22.8125 43V20.6562H31.875C36.4375 20.6562 38.7188 22.651 38.7188 26.6406C38.7188 30.9844 35.599 33.6354 29.3594 34.5938L28.7656 32.1562C33.349 31.4792 35.6406 29.6823 35.6406 26.7656C35.6406 24.2865 34.2969 23.0469 31.6094 23.0469H25.7031V43H22.8125ZM42.5625 43V20.6562H46.2344L54.4375 39.2969L62.4844 20.6562H66V43H63.4219V24.6719L55.4844 43H53.2031L45.1406 24.6719V43H42.5625Z" fill="white"/>
<path d="M0.732422 53.7559V52.9258C1.46484 53.1862 2.25586 53.3164 3.10547 53.3164C4.30664 53.3164 4.90723 52.877 4.90723 51.998C4.90723 51.2493 4.46452 50.875 3.5791 50.875H2.68066C1.21908 50.875 0.488281 50.2402 0.488281 48.9707C0.488281 47.6361 1.42415 46.9688 3.2959 46.9688C4.1097 46.9688 4.86654 47.0664 5.56641 47.2617V48.0918C4.86654 47.8314 4.1097 47.7012 3.2959 47.7012C2.02637 47.7012 1.3916 48.1243 1.3916 48.9707C1.3916 49.7194 1.82129 50.0938 2.68066 50.0938H3.5791C5.06673 50.0938 5.81055 50.7285 5.81055 51.998C5.81055 53.3652 4.90885 54.0488 3.10547 54.0488C2.25586 54.0488 1.46484 53.9512 0.732422 53.7559ZM7.03125 54V48.873H7.6416L7.79297 49.5176C8.28451 49.0879 8.81999 48.873 9.39941 48.873C10.1416 48.873 10.6478 49.1074 10.918 49.5762C11.4746 49.1074 12.0394 48.873 12.6123 48.873C13.7907 48.873 14.3799 49.5225 14.3799 50.8213V54H13.4766V50.7725C13.4766 50.0075 13.1543 49.625 12.5098 49.625C12.028 49.625 11.5771 49.8464 11.1572 50.2891V54H10.2539V50.7871C10.2539 50.0124 9.9349 49.625 9.29688 49.625C8.78906 49.625 8.33496 49.8464 7.93457 50.2891V54H7.03125ZM15.6055 52.4521C15.6055 51.4007 16.2988 50.875 17.6855 50.875C18.1315 50.875 18.5775 50.9076 19.0234 50.9727V50.4893C19.0234 49.9001 18.5628 49.6055 17.6416 49.6055C17.1143 49.6055 16.5739 49.6868 16.0205 49.8496V49.1172C16.5739 48.9544 17.1143 48.873 17.6416 48.873C19.165 48.873 19.9268 49.4036 19.9268 50.4648V54H19.4189L19.1064 53.4922C18.5954 53.8307 18.0387 54 17.4365 54C16.2158 54 15.6055 53.484 15.6055 52.4521ZM17.6855 51.6074C16.901 51.6074 16.5088 51.8841 16.5088 52.4375C16.5088 52.9909 16.818 53.2676 17.4365 53.2676C18.0615 53.2676 18.5905 53.1016 19.0234 52.7695V51.7051C18.5775 51.64 18.1315 51.6074 17.6855 51.6074ZM21.3965 54V48.873H22.0068L22.168 49.5273C22.6172 49.0911 23.1576 48.873 23.7891 48.873V49.625C23.1771 49.625 22.6807 49.8415 22.2998 50.2744V54H21.3965ZM24.6973 48.043H25.2637L25.459 48.873H26.8457V49.6055H25.6006V52.5498C25.6006 53.0283 25.8073 53.2676 26.2207 53.2676H26.8457V54H25.9863C25.127 54 24.6973 53.5394 24.6973 52.6182V48.043ZM30.5371 54V47.0176H33.3691C34.7949 47.0176 35.5078 47.641 35.5078 48.8877C35.5078 50.2451 34.5329 51.0736 32.583 51.373L32.3975 50.6113C33.8298 50.3997 34.5459 49.8382 34.5459 48.9268C34.5459 48.152 34.126 47.7646 33.2861 47.7646H31.4404V54H30.5371ZM36.3672 52.4521C36.3672 51.4007 37.0605 50.875 38.4473 50.875C38.8932 50.875 39.3392 50.9076 39.7852 50.9727V50.4893C39.7852 49.9001 39.3245 49.6055 38.4033 49.6055C37.876 49.6055 37.3356 49.6868 36.7822 49.8496V49.1172C37.3356 48.9544 37.876 48.873 38.4033 48.873C39.9268 48.873 40.6885 49.4036 40.6885 50.4648V54H40.1807L39.8682 53.4922C39.3571 53.8307 38.8005 54 38.1982 54C36.9775 54 36.3672 53.484 36.3672 52.4521ZM38.4473 51.6074C37.6628 51.6074 37.2705 51.8841 37.2705 52.4375C37.2705 52.9909 37.5798 53.2676 38.1982 53.2676C38.8232 53.2676 39.3522 53.1016 39.7852 52.7695V51.7051C39.3392 51.64 38.8932 51.6074 38.4473 51.6074ZM42.1582 54V48.873H42.7686L42.9297 49.5273C43.3789 49.0911 43.9193 48.873 44.5508 48.873V49.625C43.9388 49.625 43.4424 49.8415 43.0615 50.2744V54H42.1582ZM45.459 54V47.0176H46.3623V49.2734C46.8604 49.0065 47.4349 48.873 48.0859 48.873C49.362 48.873 50 49.3662 50 50.3525C50 51.0687 49.5117 51.5635 48.5352 51.8369L50.1758 54H49.0332L47.4023 51.8271V51.4219C48.5319 51.321 49.0967 50.9629 49.0967 50.3477C49.0967 49.8529 48.7386 49.6055 48.0225 49.6055C47.4593 49.6055 46.9059 49.7585 46.3623 50.0645V54H45.459ZM52.2314 48.873V54H51.3281V48.873H52.2314ZM52.2314 47.0176V47.8721H51.3281V47.0176H52.2314ZM53.7988 54V48.873H54.4092L54.5703 49.5273C55.0944 49.0911 55.6706 48.873 56.2988 48.873C57.5781 48.873 58.2178 49.5094 58.2178 50.7822V54H57.3145V50.7676C57.3145 50.0059 56.9352 49.625 56.1768 49.625C55.6592 49.625 55.1676 49.8415 54.7021 50.2744V54H53.7988ZM63.1152 49.7422C62.806 49.6641 62.4235 49.625 61.9678 49.625C60.8773 49.625 60.332 50.2158 60.332 51.3975C60.332 52.6117 60.848 53.2188 61.8799 53.2188C62.3486 53.2188 62.7604 53.1309 63.1152 52.9551V49.7422ZM64.0186 54C64.0186 55.237 63.2324 55.8555 61.6602 55.8555C61.0286 55.8555 60.4688 55.7741 59.9805 55.6113V54.8789C60.4785 55.0417 61.0417 55.123 61.6699 55.123C62.6335 55.123 63.1152 54.7487 63.1152 54V53.7559C62.7311 53.9186 62.3177 54 61.875 54C60.2539 54 59.4434 53.1357 59.4434 51.4072C59.4434 49.7178 60.2979 48.873 62.0068 48.873C62.7002 48.873 63.3708 48.943 64.0186 49.083V54ZM68.0273 54V47.0176H69.1748L71.7383 52.8428L74.2529 47.0176H75.3516V54H74.5459V48.2725L72.0654 54H71.3525L68.833 48.2725V54H68.0273ZM76.6699 52.4521C76.6699 51.4007 77.3633 50.875 78.75 50.875C79.196 50.875 79.6419 50.9076 80.0879 50.9727V50.4893C80.0879 49.9001 79.6273 49.6055 78.7061 49.6055C78.1787 49.6055 77.6383 49.6868 77.085 49.8496V49.1172C77.6383 48.9544 78.1787 48.873 78.7061 48.873C80.2295 48.873 80.9912 49.4036 80.9912 50.4648V54H80.4834L80.1709 53.4922C79.6598 53.8307 79.1032 54 78.501 54C77.2803 54 76.6699 53.484 76.6699 52.4521ZM78.75 51.6074C77.9655 51.6074 77.5732 51.8841 77.5732 52.4375C77.5732 52.9909 77.8825 53.2676 78.501 53.2676C79.126 53.2676 79.6549 53.1016 80.0879 52.7695V51.7051C79.6419 51.64 79.196 51.6074 78.75 51.6074ZM82.4609 54V48.873H83.0713L83.2324 49.5273C83.6816 49.0911 84.222 48.873 84.8535 48.873V49.625C84.2415 49.625 83.7451 49.8415 83.3643 50.2744V54H82.4609ZM86.4209 51.417C86.4209 52.6507 86.9336 53.2676 87.959 53.2676C88.9844 53.2676 89.4971 52.6507 89.4971 51.417C89.4971 50.2093 88.9844 49.6055 87.959 49.6055C86.9336 49.6055 86.4209 50.2093 86.4209 51.417ZM85.5176 51.4365C85.5176 49.7275 86.3314 48.873 87.959 48.873C89.5866 48.873 90.4004 49.7275 90.4004 51.4365C90.4004 53.1423 89.5866 53.9951 87.959 53.9951C86.3379 53.9951 85.5241 53.1423 85.5176 51.4365ZM95.4785 53.8535C95.0553 53.9512 94.5996 54 94.1113 54C92.2884 54 91.377 53.113 91.377 51.3389C91.377 49.695 92.2884 48.873 94.1113 48.873C94.5996 48.873 95.0553 48.9219 95.4785 49.0195V49.752C95.0553 49.6543 94.5833 49.6055 94.0625 49.6055C92.8743 49.6055 92.2803 50.1833 92.2803 51.3389C92.2803 52.6247 92.8743 53.2676 94.0625 53.2676C94.5833 53.2676 95.0553 53.2188 95.4785 53.1211V53.8535Z" fill="white"/>
<rect width="6" height="40" rx="3" transform="matrix(0.307523 -0.951541 0.911749 0.410748 67.9999 5.70926)" fill="white"/>
<ellipse cx="81.4987" cy="8.32743" rx="1.49871" ry="1.32743" fill="black"/>
<ellipse cx="75.4987" cy="5.32743" rx="1.49871" ry="1.32743" fill="black"/>
<ellipse cx="88.4987" cy="11.3274" rx="1.49871" ry="1.32743" fill="black"/>
<ellipse cx="94.4987" cy="14.3274" rx="1.49871" ry="1.32743" fill="black"/>
<path d="M93.9997 33.0371C93.9997 32.5654 93.902 32.1149 93.7256 31.7027C93.7074 31.5979 93.6866 31.4933 93.6606 31.3872L91.7496 26.2249L91.7367 26.1785C91.068 24.0084 90.1167 22 87.7043 22H78.4808C76.0089 22 75.1355 24.0582 74.4522 26.1664L72.4533 31.3413C72.1643 31.846 72 32.4233 72 33.0371V34.6434C72 34.8918 72.0269 35.1347 72.0781 35.3687C72.0284 35.5101 72 35.6624 72 35.823V40.6006C72 41.3012 72.521 41.8693 73.1638 41.8693H75.5788C76.2212 41.8693 76.7423 41.3012 76.7423 40.6006V38.2115H89.3954V40.6006C89.3954 41.3012 89.9165 41.8693 90.5593 41.8693H92.8361C93.4791 41.8693 94 41.3012 94 40.6006V35.8225C94 35.6625 93.9713 35.5094 93.922 35.3685C93.973 35.1342 94 34.8915 94 34.6432V33.0371H93.9997V33.0371ZM75.8705 26.6847C76.6314 24.3446 77.2433 23.6303 78.4808 23.6303H87.7037C88.9322 23.6303 89.6162 24.427 90.3112 26.6747L91.7058 29.755C91.2504 29.5712 90.7493 29.4692 90.2229 29.4692H75.7768C75.3028 29.4692 74.8498 29.5523 74.4319 29.7027L75.8705 26.6847ZM77.0684 35.2535H74.5203C74.0615 35.2535 73.6894 34.8475 73.6894 34.3475C73.6894 33.8473 74.0615 33.4416 74.5203 33.4416H77.0684C77.5274 33.4416 77.8994 33.8473 77.8994 34.3475C77.8994 34.8475 77.5271 35.2535 77.0684 35.2535ZM86.0697 35.072H80.1427C79.8521 35.072 79.6167 34.8152 79.6167 34.4986C79.6167 34.1814 79.8521 33.9247 80.1427 33.9247H86.0697C86.3607 33.9247 86.5961 34.1814 86.5961 34.4986C86.5961 34.8152 86.3607 35.072 86.0697 35.072ZM91.4152 35.2535H88.8672C88.408 35.2535 88.0361 34.8475 88.0361 34.3475C88.0361 33.8473 88.4083 33.4416 88.8672 33.4416H91.4152C91.8744 33.4416 92.2466 33.8473 92.2466 34.3475C92.2466 34.8475 91.8744 35.2535 91.4152 35.2535Z" fill="white"/>
</svg>
