<svg width="30" height="30" viewBox="0 0 30 30" fill="none" xmlns="http://www.w3.org/2000/svg">
<path d="M0.937042 0H29.063L26.2504 27.1874L15.9376 30H14.0625L3.74961 27.1874L0.937042 0Z" fill="#D99666"/>
<path d="M15 2.81201H25.3128L23.4378 24.3752L15.0001 27.1878C15 27.1878 15 2.81201 15 2.81201Z" fill="#F4B459"/>
<path d="M22.5172 8.42493L22.8124 5.62451H6.53223L6.86033 8.42493L7.16042 12.1938H7.15661L7.44074 14.9989H18.3545L17.9795 19.4615L15 20.4028V20.3737L11.038 19.3265L10.7952 16.8674H7.48667L7.93105 21.3844V21.5691L15 23.4376L20.928 21.5691H21.0002L21.0021 21.5437L21.0151 21.5419V21.3938L21.5515 14.9989H21.5636L21.8487 12.1938H10.6011L10.3011 8.42493H22.5172Z" fill="white"/>
<path d="M15 5.62451H6.53223L6.86033 8.42493L7.16042 12.1938H7.15661L7.44074 14.9988H15V12.1938H10.6011L10.3011 8.42493H15V5.62451Z" fill="#E5E5E5"/>
<path d="M15 20.374L11.038 19.3268L10.7952 16.8677H7.48666L7.93104 21.3847V21.5694L15 23.4379V20.4031V20.374Z" fill="#E5E5E5"/>
</svg>
