<svg width="30" height="30" viewBox="0 0 30 30" fill="none" xmlns="http://www.w3.org/2000/svg">
<rect width="30" height="30" fill="black"/>
<path d="M5.71097 17.377H4.31058V20.5H2.55276V11.9688H5.72269C6.7305 11.9688 7.50784 12.1934 8.05472 12.6426C8.60159 13.0918 8.87503 13.7266 8.87503 14.5469C8.87503 15.1289 8.74808 15.6152 8.49417 16.0059C8.24417 16.3926 7.86331 16.7012 7.35159 16.9316L9.1973 20.418V20.5H7.31058L5.71097 17.377ZM4.31058 15.9531H5.72855C6.16995 15.9531 6.51175 15.8418 6.75394 15.6191C6.99612 15.3926 7.11722 15.082 7.11722 14.6875C7.11722 14.2852 7.00198 13.9688 6.77151 13.7383C6.54495 13.5078 6.19534 13.3926 5.72269 13.3926H4.31058V15.9531ZM16.8614 18.0391L18.0098 11.9688H19.7617L17.8692 20.5H16.0996L14.711 14.793L13.3223 20.5H11.5528L9.66019 11.9688H11.4121L12.5664 18.0273L13.9727 11.9688H15.461L16.8614 18.0391ZM20.7168 20.5V11.9688H23.3418C24.0918 11.9688 24.7617 12.1387 25.3516 12.4785C25.9453 12.8145 26.4082 13.2949 26.7403 13.9199C27.0723 14.541 27.2383 15.248 27.2383 16.041V16.4336C27.2383 17.2266 27.0742 17.9316 26.7461 18.5488C26.4219 19.166 25.9629 19.6445 25.3692 19.9844C24.7754 20.3242 24.1055 20.4961 23.3594 20.5H20.7168ZM22.4746 13.3926V19.0879H23.3242C24.0117 19.0879 24.5371 18.8633 24.9004 18.4141C25.2637 17.9648 25.4492 17.3223 25.4571 16.4863V16.0352C25.4571 15.168 25.2774 14.5117 24.918 14.0664C24.5586 13.6172 24.0332 13.3926 23.3418 13.3926H22.4746Z" fill="white"/>
</svg>
