<svg width="30" height="30" viewBox="0 0 30 30" fill="none" xmlns="http://www.w3.org/2000/svg">
<g clip-path="url(#clip0)">
<path d="M20.5299 21.0397H13.6444L14.885 15.6406H19.2893L20.5299 21.0397Z" fill="#EFEFEF"/>
<path d="M4.61368 16.2809V2.26687C4.61368 1.58121 5.1695 1.02539 5.85516 1.02539H28.3191C29.0047 1.02539 29.5606 1.58121 29.5606 2.26687V13.7282L4.61368 16.2809Z" fill="#3498AC"/>
<path d="M29.5605 13.7282V2.26687C29.5605 1.58121 29.0047 1.02539 28.3191 1.02539H26.5612C27.2469 1.02539 27.8027 1.58121 27.8027 2.26687V16.2809L29.5605 13.7282Z" fill="#288A9A"/>
<path d="M4.61368 13.7285V16.2803C4.61368 16.9665 5.16915 17.5227 5.85428 17.5227H28.3199C29.0051 17.5227 29.5605 16.9664 29.5605 16.2803V13.7285H4.61368Z" fill="#F7F7F7"/>
<path d="M27.8027 13.7285V16.2803C27.8027 16.9665 27.2473 17.5227 26.5621 17.5227H28.3199C29.0051 17.5227 29.5606 16.9664 29.5606 16.2803V13.7285H27.8027Z" fill="#EFEFEF"/>
<path d="M0.439453 26.3424V10.5366C0.439453 10.2802 0.647344 10.0723 0.90375 10.0723H13.1185C13.3749 10.0723 13.5828 10.2802 13.5828 10.5366V26.3423C13.5828 26.5988 13.3749 26.8066 13.1185 26.8066H0.90375C0.647344 26.8067 0.439453 26.5988 0.439453 26.3424V26.3424Z" fill="#FFE66B"/>
<path d="M11.9697 23.9878H2.05261V11.6795H11.9697V23.9878Z" fill="#3498AC"/>
<path d="M10.2119 11.6797H11.9697V23.9879H10.2119V11.6797Z" fill="#288A9A"/>
<path d="M10.5225 28.0871V17.167C10.5225 16.677 10.9197 16.2798 11.4097 16.2798H16.2074C16.6973 16.2798 17.0945 16.677 17.0945 17.167V28.0871C17.0945 28.577 16.6973 28.9742 16.2074 28.9742H11.4097C10.9197 28.9742 10.5225 28.577 10.5225 28.0871V28.0871Z" fill="#C9F0FF"/>
<path d="M16.2074 16.2798H14.4496C14.9395 16.2798 15.3367 16.677 15.3367 17.167V28.0871C15.3367 28.577 14.9395 28.9742 14.4496 28.9742H16.2074C16.6973 28.9742 17.0946 28.577 17.0946 28.0871V17.167C17.0946 16.677 16.6973 16.2798 16.2074 16.2798Z" fill="#B5EAFF"/>
<path d="M10.5225 27.0938H17.0946V28.0991C17.0946 28.5827 16.6962 28.9747 16.2049 28.9747H11.4122C10.9208 28.9747 10.5225 28.5827 10.5225 28.0991V27.0938Z" fill="#3498AC"/>
<path d="M15.3368 27.0938V28.0991C15.3368 28.5827 14.9384 28.9747 14.4471 28.9747H16.2049C16.6962 28.9747 17.0946 28.5827 17.0946 28.0991V27.0938H15.3368Z" fill="#288A9A"/>
<path d="M28.3191 0.585938H26.543C25.993 0.585938 25.968 1.46484 26.543 1.46484H28.3191C28.7613 1.46484 29.1211 1.82467 29.1211 2.26687V13.2887H14.0222V10.5364C14.0222 10.0381 13.6168 9.6327 13.1185 9.6327H5.05312V2.26687C5.05312 1.82467 5.41295 1.46484 5.85516 1.46484H24.0234C24.5734 1.46484 24.5984 0.585938 24.0234 0.585938H5.85516C4.92826 0.585938 4.17422 1.34004 4.17422 2.26687V9.63275H0.90375C0.40541 9.63275 0 10.0382 0 10.5365V26.3423C0 26.8407 0.40541 27.2461 0.90375 27.2461H10.083V28.099C10.083 28.6805 10.4665 29.1746 10.9962 29.3478C11.0031 29.3501 11.0099 29.3526 11.017 29.3548C11.0194 29.3555 11.0218 29.3561 11.0242 29.3568C11.1462 29.394 11.2756 29.4141 11.4097 29.4141H16.2073C16.3406 29.4141 16.4693 29.3941 16.5908 29.3574C16.5939 29.3565 16.5971 29.3557 16.6002 29.3547C16.6065 29.3528 16.6126 29.3505 16.6188 29.3485C17.1496 29.1759 17.534 28.6812 17.534 28.0991V21.4794H22.6861C23.2361 21.4794 23.2611 20.6004 22.6861 20.6004H20.8798L20.2734 17.9618H28.319C29.2345 17.9618 29.9999 17.1986 29.9999 16.2809V2.26687C30 1.33998 29.246 0.585938 28.3191 0.585938V0.585938ZM29.1211 14.1676V16.28C29.1211 16.7201 28.759 17.0828 28.3199 17.0828H17.531C17.4873 16.3905 16.9104 15.8406 16.2073 15.8406H14.0222V14.1676H29.1211ZM16.2073 16.7196C16.4542 16.7196 16.6551 16.9205 16.6551 17.1673V26.6542H10.9619V17.1673C10.9619 16.9205 11.1628 16.7195 11.4097 16.7195H16.2073V16.7196ZM0.878906 26.3423C0.90375 26.3173 0.83127 10.5063 0.903691 10.5117C0.90375 10.5117 13.1185 10.5117 13.1185 10.5117C13.1322 10.5117 13.1433 10.5228 13.1433 10.5365V15.8407H12.4091V11.6797C12.4091 11.437 12.2123 11.2402 11.9696 11.2402H2.0526C1.8099 11.2402 1.61314 11.437 1.61314 11.6797V18.9258C1.61314 19.4757 2.49205 19.5008 2.49205 18.9258V12.1191H11.5302V15.8407C10.7692 15.8087 10.083 16.3796 10.083 17.1674V23.5485H2.49205V21.3564C2.49205 20.8065 1.61314 20.7814 1.61314 21.3564V23.9879C1.61314 24.2306 1.8099 24.4274 2.0526 24.4274H10.083V26.3672C10.058 26.3425 0.873633 26.4145 0.878906 26.3423V26.3423ZM11.4122 28.5352C11.3664 28.5352 11.3223 28.5285 11.2807 28.5161C11.2798 28.5158 11.2789 28.5156 11.278 28.5154C11.2758 28.5146 11.2736 28.5139 11.2714 28.5132C11.092 28.4548 10.962 28.286 10.962 28.0874V27.5331H16.6552V28.0874C16.6552 28.2861 16.5251 28.4548 16.3457 28.5132C16.3435 28.5139 16.3413 28.5148 16.3391 28.5154C16.3382 28.5157 16.3372 28.5159 16.3363 28.5162C16.2947 28.5285 16.2506 28.5352 16.2049 28.5352H11.4122V28.5352ZM19.9779 20.6004H17.534V17.9618H19.3716L19.9779 20.6004Z" fill="black"/>
<path d="M7.46836 24.9487H6.55395C5.97206 24.9689 5.97253 25.8077 6.55395 25.8276H7.46836C8.05026 25.8075 8.04979 24.9687 7.46836 24.9487Z" fill="black"/>
<path d="M13.4211 18.0464H14.1959C14.7778 18.0262 14.7773 17.1875 14.1959 17.1675H13.4211C12.8392 17.1876 12.8396 18.0264 13.4211 18.0464Z" fill="black"/>
</g>
<defs>
<clipPath id="clip0">
<rect width="30" height="30" fill="white"/>
</clipPath>
</defs>
</svg>
