<svg width="30" height="30" viewBox="0 0 30 30" fill="none" xmlns="http://www.w3.org/2000/svg">
<path d="M28.0435 0.652344H1.95651C1.23905 0.652344 0.652161 1.23924 0.652161 1.95669V28.0436C0.652161 28.7611 1.23905 29.348 1.95651 29.348H28.0435C28.7609 29.348 29.3478 28.7611 29.3478 28.0436V1.95669C29.3478 1.23924 28.7609 0.652344 28.0435 0.652344Z" fill="#CCE4FF"/>
<path d="M28.0435 0H1.95652C0.877951 0 0 0.877951 0 1.95652V28.0435C0 29.1221 0.877951 30 1.95652 30H28.0435C29.1221 30 30 29.1221 30 28.0435V1.95652C30 0.877951 29.1221 0 28.0435 0ZM28.6957 28.0435C28.6957 28.4033 28.4027 28.6957 28.0435 28.6957H1.95652C1.59732 28.6957 1.30435 28.4033 1.30435 28.0435V1.95652C1.30435 1.59732 1.59732 1.30435 1.95652 1.30435H28.0435C28.4027 1.30435 28.6957 1.59732 28.6957 1.95652V28.0435Z" fill="#007AFF"/>
<path d="M17.6087 5.21729H8.47828C8.11844 5.21729 7.82611 5.50962 7.82611 5.86946V24.1303C7.82611 24.4911 8.11844 24.7825 8.47828 24.7825H17.6087C20.126 24.7825 22.1739 22.7339 22.1739 20.2173V18.9129C22.1739 17.2513 21.2785 15.7989 19.948 14.9999C21.2785 14.2016 22.1739 12.7485 22.1739 11.0869V9.7825C22.1739 7.2652 20.126 5.21729 17.6087 5.21729ZM20.8696 18.9129V20.2173C20.8696 22.0152 19.4067 23.4782 17.6087 23.4782H9.13046V15.6521H17.6087C19.4067 15.6521 20.8696 17.115 20.8696 18.9129ZM20.8696 11.0869C20.8696 12.8848 19.4067 14.3477 17.6087 14.3477H9.13046V6.52163H17.6087C19.4067 6.52163 20.8696 7.98457 20.8696 9.7825V11.0869Z" fill="#007AFF"/>
</svg>
