<svg width="30" height="30" viewBox="0 0 30 30" fill="none" xmlns="http://www.w3.org/2000/svg">
<circle cx="15" cy="15" r="14.5" fill="#9B66C5" stroke="white"/>
<path d="M8.85107 10.8799H10.4624V16.2939C10.4624 16.7917 10.3514 17.2321 10.1294 17.6152C9.91097 17.9948 9.60124 18.2884 9.2002 18.4961C8.79915 18.7038 8.34619 18.8076 7.84131 18.8076C7.01416 18.8076 6.36963 18.5981 5.90771 18.1792C5.4458 17.7567 5.21484 17.1605 5.21484 16.3906H6.83691C6.83691 16.7738 6.91748 17.0566 7.07861 17.2393C7.23975 17.4219 7.49398 17.5132 7.84131 17.5132C8.14925 17.5132 8.39453 17.4076 8.57715 17.1963C8.75977 16.985 8.85107 16.6842 8.85107 16.2939V10.8799ZM13.4541 15.9448V18.7002H11.8428V10.8799H14.8936C15.4808 10.8799 15.9964 10.9873 16.4404 11.2021C16.888 11.417 17.2318 11.7231 17.4717 12.1206C17.7116 12.5145 17.8315 12.9639 17.8315 13.4688C17.8315 14.235 17.5684 14.8402 17.042 15.2842C16.5192 15.7246 15.7941 15.9448 14.8667 15.9448H13.4541ZM13.4541 14.6396H14.8936C15.3197 14.6396 15.6437 14.5394 15.8657 14.3389C16.0913 14.1383 16.2041 13.8519 16.2041 13.4795C16.2041 13.0964 16.0913 12.7866 15.8657 12.5503C15.6401 12.314 15.3286 12.1922 14.9312 12.1851H13.4541V14.6396ZM22.4023 17.0889H19.5771L19.04 18.7002H17.3267L20.2378 10.8799H21.731L24.6582 18.7002H22.9448L22.4023 17.0889ZM20.0122 15.7837H21.9673L20.9844 12.8564L20.0122 15.7837Z" fill="white"/>
</svg>
