<svg width="30" height="30" viewBox="0 0 30 30" fill="none" xmlns="http://www.w3.org/2000/svg">
<g clip-path="url(#clip0)">
<path d="M9.49931 23.501V11.4994H23.5012V6.49881H17.5004V0.498047H0.498138V29.5018H23.5012V23.501H9.49931Z" fill="#FFE100"/>
<path d="M22.0009 29.502H23.5011V6.49902H22.0009V29.502Z" fill="#FFA800"/>
<path d="M2.99847 23.5016H29.5019V11.5H2.99847V23.5016Z" fill="#63D3FD"/>
<path d="M28.0017 23.5016H29.5019V11.5H28.0017V23.5016Z" fill="#3DB9F9"/>
<path d="M23.5011 6.49881H17.5004V0.498047L23.5011 6.49881Z" fill="#FDCC00"/>
<path d="M0.498138 29.5018H1.99831V0.498047H0.498138V29.5018Z" fill="white"/>
<path d="M23.5022 6.99743C23.5019 6.99743 23.5015 6.99743 23.5011 6.99743H17.5004C17.2253 6.99743 17.0023 6.77443 17.0023 6.49933V0.498626C17.0023 0.29718 17.1236 0.11554 17.3098 0.0384304C17.4959 -0.0386789 17.7101 0.00391873 17.8526 0.146419L23.8336 6.12738C23.936 6.21861 24.0004 6.35144 24.0004 6.49939C24.0003 6.77449 23.7773 6.99743 23.5022 6.99743ZM17.9985 6.00122H22.2985L17.9985 1.70115V6.00122Z" fill="black"/>
<path d="M29.5019 23.9993H2.99847C2.72337 23.9993 2.50037 23.7763 2.50037 23.5012V11.4996C2.50037 11.2245 2.72337 11.0015 2.99847 11.0015H29.5019C29.777 11.0015 30 11.2245 30 11.4996V23.5011C30 23.7762 29.777 23.9993 29.5019 23.9993ZM3.49658 23.003H29.0038V11.9977H3.49658V23.003Z" fill="black"/>
<path d="M6.9989 21.9992C5.6213 21.9992 4.50058 20.8785 4.50058 19.5008C4.50058 19.2257 4.72359 19.0027 4.99869 19.0027C5.27378 19.0027 5.49679 19.2257 5.49679 19.5008C5.49679 20.3292 6.17062 21.003 6.9989 21.003C7.82718 21.003 8.50107 20.3292 8.50107 19.5008C8.50107 18.6725 7.82718 17.9987 6.9989 17.9987C5.6213 17.9987 4.50058 16.878 4.50058 15.5003C4.50058 14.1227 5.6213 13.002 6.9989 13.002C8.3765 13.002 9.49734 14.1227 9.49734 15.5003C9.49734 15.7754 9.27433 15.9984 8.99923 15.9984C8.72413 15.9984 8.50113 15.7754 8.50113 15.5003C8.50113 14.672 7.82724 13.9982 6.99896 13.9982C6.17068 13.9982 5.49685 14.672 5.49685 15.5003C5.49685 16.3287 6.17068 17.0025 6.99896 17.0025C8.37656 17.0025 9.4974 18.1232 9.4974 19.5008C9.4974 20.8784 8.37656 21.9992 6.9989 21.9992Z" fill="black"/>
<path d="M23.5011 30.0009H0.498105C0.223008 30.0009 0 29.7779 0 29.5028V0.499082C0 0.223984 0.223008 0.000976562 0.498105 0.000976562H17.5003C17.7754 0.000976562 17.9984 0.223984 17.9984 0.499082V6.00174H23.501C23.7761 6.00174 23.9991 6.22475 23.9991 6.49984V11.5005C23.9991 11.7756 23.7761 11.9986 23.501 11.9986H3.49658V23.0039H23.5011C23.7762 23.0039 23.9992 23.2269 23.9992 23.502V29.5028C23.9992 29.7779 23.7762 30.0009 23.5011 30.0009ZM0.996211 29.0047H23.0029V24.0002H2.99848C2.72338 24.0002 2.50037 23.7771 2.50037 23.5021V11.5005C2.50037 11.2254 2.72338 11.0024 2.99848 11.0024H23.003V6.99789H17.5004C17.2253 6.99789 17.0023 6.77488 17.0023 6.49979V0.997129H0.996211V29.0047Z" fill="black"/>
<path d="M19.5006 21.9992C18.123 21.9992 17.0023 20.8785 17.0023 19.5008C17.0023 19.2257 17.2253 19.0027 17.5004 19.0027C17.7755 19.0027 17.9985 19.2257 17.9985 19.5008C17.9985 20.3292 18.6723 21.003 19.5006 21.003C20.3289 21.003 21.0027 20.3292 21.0027 19.5008C21.0027 18.6725 20.3289 17.9987 19.5006 17.9987C18.123 17.9987 17.0023 16.878 17.0023 15.5003C17.0023 14.1227 18.123 13.002 19.5006 13.002C20.8782 13.002 21.999 14.1227 21.999 15.5003C21.999 15.7754 21.776 15.9984 21.5009 15.9984C21.2258 15.9984 21.0028 15.7754 21.0028 15.5003C21.0028 14.672 20.329 13.9982 19.5006 13.9982C18.6724 13.9982 17.9985 14.672 17.9985 15.5003C17.9985 16.3286 18.6724 17.0024 19.5006 17.0024C20.8783 17.0024 21.9991 18.1232 21.9991 19.5008C21.999 20.8785 20.8782 21.9992 19.5006 21.9992Z" fill="black"/>
<path d="M25.5013 21.9992C24.1237 21.9992 23.003 20.8785 23.003 19.5008C23.003 19.2257 23.226 19.0027 23.5011 19.0027C23.7762 19.0027 23.9992 19.2257 23.9992 19.5008C23.9992 20.3292 24.673 21.003 25.5013 21.003C26.3296 21.003 27.0034 20.3292 27.0034 19.5008C27.0034 18.6725 26.3296 17.9987 25.5013 17.9987C24.1237 17.9987 23.003 16.878 23.003 15.5003C23.003 14.1227 24.1237 13.002 25.5013 13.002C26.8789 13.002 27.9997 14.1227 27.9997 15.5003C27.9997 15.7754 27.7767 15.9984 27.5016 15.9984C27.2265 15.9984 27.0034 15.7754 27.0034 15.5003C27.0034 14.672 26.3296 13.9982 25.5013 13.9982C24.673 13.9982 23.9992 14.672 23.9992 15.5003C23.9992 16.3286 24.673 17.0024 25.5013 17.0024C26.8789 17.0024 27.9997 18.1232 27.9997 19.5008C27.9997 20.8785 26.8789 21.9992 25.5013 21.9992Z" fill="black"/>
<path d="M16.0001 21.9994C15.7985 21.9994 15.6087 21.8761 15.5337 21.676L13.0426 15.0329L10.9748 21.6497C10.8928 21.9122 10.6133 22.0585 10.3509 21.9766C10.0883 21.8945 9.94196 21.6151 10.024 21.3526L12.5244 13.3515C12.5878 13.1485 12.7733 13.0081 12.9859 13.0022C13.197 12.9957 13.3915 13.1259 13.4662 13.3252L16.4666 21.3263C16.5632 21.5839 16.4327 21.871 16.175 21.9675C16.1174 21.9891 16.0583 21.9994 16.0001 21.9994Z" fill="black"/>
<path d="M14.875 18.9987H11.437C11.1619 18.9987 10.9389 18.7756 10.9389 18.5005C10.9389 18.2254 11.1619 18.0024 11.437 18.0024H14.875C15.1502 18.0024 15.3731 18.2254 15.3731 18.5005C15.3731 18.7756 15.1501 18.9987 14.875 18.9987Z" fill="black"/>
</g>
<defs>
<clipPath id="clip0">
<rect width="30" height="30" fill="white"/>
</clipPath>
</defs>
</svg>
