<svg width="30" height="30" viewBox="0 0 30 30" fill="none" xmlns="http://www.w3.org/2000/svg">
<path d="M10.0704 15C10.0704 7.19619 12.6684 1.75781 15 1.75781L15.8941 0.833086L15 0C13.0688 0 11.3215 1.66225 10.08 4.68053C8.94025 7.45125 8.31259 11.1161 8.31259 15C8.31259 18.8839 8.94025 22.5487 10.08 25.3195C11.3215 28.3378 13.0688 30 15 30L15.8941 29.0096L15 28.2422C12.6684 28.2422 10.0704 22.8038 10.0704 15Z" fill="#1EA7A8"/>
<path d="M19.9201 4.68053C18.6785 1.66225 16.9312 0 15 0V1.75781C17.3316 1.75781 19.9296 7.19619 19.9296 15C19.9296 22.8038 17.3316 28.2422 15 28.2422V30C16.9312 30 18.6785 28.3378 19.9201 25.3195C21.0598 22.5487 21.6874 18.8839 21.6874 15C21.6874 11.1161 21.0598 7.45125 19.9201 4.68053Z" fill="#1A8092"/>
<path d="M26.5282 15.848C24.6985 13.4757 21.8385 11.0996 18.475 9.15771C17.3227 8.49238 16.1557 7.90381 15 7.40137V9.32746C15.8467 9.72162 16.7149 10.1713 17.5961 10.68C20.7656 12.51 23.4435 14.7266 25.1364 16.9216C26.6436 18.8758 27.1768 20.5703 26.5994 21.5703C25.5699 23.3535 20.7637 23.1954 15.0001 20.4474V22.3813C17.3081 23.4094 19.5792 24.0977 21.6082 24.3698C22.2441 24.4551 22.8443 24.4973 23.4058 24.4973C25.7003 24.4973 27.3459 23.7929 28.1216 22.4492C29.0873 20.7767 28.5214 18.4323 26.5282 15.848V15.848Z" fill="#0D5360"/>
<path d="M12.6665 19.2181C9.49698 17.3882 6.81913 15.1716 5.12624 12.9766C3.61903 11.0223 3.08576 9.32791 3.66321 8.32783C4.10454 7.56348 5.23967 7.15573 6.8469 7.15573C8.93184 7.15573 11.8114 7.8428 15 9.32721V7.40112C12.7825 6.43701 10.6065 5.7902 8.6544 5.52834C5.41979 5.09446 3.10651 5.77649 2.14088 7.44899C1.17525 9.12149 1.74115 11.4658 3.73428 14.0502C5.56399 16.4225 8.42401 18.7985 11.7875 20.7405C12.8527 21.3555 13.9303 21.9047 14.9999 22.3811V20.4471C14.2367 20.0831 13.4568 19.6744 12.6665 19.2181V19.2181Z" fill="#1A8092"/>
<path d="M6.58435 22.7424C4.9776 22.7423 3.84193 22.3346 3.40066 21.5703C2.82328 20.5703 3.35654 18.8758 4.86369 16.9216C6.55652 14.7266 9.23437 12.51 12.4039 10.68C13.2852 10.1713 14.1534 9.72156 15.0001 9.32746L15.8942 8.04256L15 7.40137C13.8443 7.90381 12.6774 8.49238 11.525 9.15771C8.1614 11.0997 5.30138 13.4757 3.47174 15.848C1.47861 18.4323 0.912712 20.7767 1.87834 22.4492C2.65418 23.793 4.29949 24.4973 6.5942 24.4973C7.15547 24.4973 7.75605 24.4551 8.39179 24.3698C10.4208 24.0976 12.6919 23.4094 14.9999 22.3813L15.8941 20.7382L15 20.4479C11.7067 22.0182 8.72648 22.7426 6.58435 22.7424V22.7424Z" fill="#28D3D5"/>
<path d="M12.2842 15C12.2842 16.4975 13.5025 17.7158 15 17.7158L16.2253 15.082L15 12.2842C13.5025 12.2842 12.2842 13.5025 12.2842 15Z" fill="#FCBE00"/>
<path d="M17.7158 15C17.7158 13.5025 16.4975 12.2842 15 12.2842V17.7158C16.4975 17.7158 17.7158 16.4975 17.7158 15Z" fill="#FF9000"/>
<path d="M27.8591 7.44901C26.8935 5.77651 24.5805 5.09442 21.3455 5.52836C19.3935 5.79022 17.2175 6.43704 15 7.40114V9.32723C18.1888 7.84276 21.0681 7.15581 23.1531 7.15581C24.7599 7.15581 25.8955 7.56368 26.3368 8.32792C26.9142 9.32799 26.3809 11.0224 24.8738 12.9767C23.1809 15.1717 20.5031 17.3883 17.3335 19.2182C16.5432 19.6745 15.7632 20.0838 15 20.4477V22.3812C16.0696 21.9047 17.1472 21.3555 18.2124 20.7405C21.576 18.7986 24.436 16.4226 26.2657 14.0502C28.2588 11.4658 28.8247 9.12145 27.8591 7.44901V7.44901Z" fill="#1EA7A8"/>
</svg>
