<svg width="34" height="38" viewBox="0 0 34 38" fill="none" xmlns="http://www.w3.org/2000/svg">
<g clip-path="url(#clip0)" filter="url(#filter0_d)">
<path d="M8.25 13.125V17.5H9.5C10.7375 17.5 11.8375 18.1125 12.525 19.05C13.525 18.1 14.875 17.5 16.375 17.5H17.625C19.125 17.5 20.475 18.1 21.475 19.05C22.1625 18.1125 23.2625 17.5 24.5 17.5C24.9375 17.5 25.3625 17.575 25.75 17.725V13.125H8.25Z" fill="#FFC107"/>
<path d="M17 16.25C16.1037 16.25 8.25 16.1625 8.25 13.125V8.125H25.75V13.125C25.75 16.1625 17.8963 16.25 17 16.25Z" fill="#FFD54F"/>
<path d="M17 11.25C16.1037 11.25 8.25 11.1625 8.25 8.125V3.125H25.75V8.125C25.75 11.1625 17.8963 11.25 17 11.25Z" fill="#FFC107"/>
<path d="M17 6.25C16.1037 6.25 8.25 6.1625 8.25 3.125C8.25 0.0874999 16.1037 0 17 0C17.8963 0 25.75 0.0874999 25.75 3.125C25.75 6.1625 17.8963 6.25 17 6.25Z" fill="#FFD54F"/>
<path d="M8.25 13.125V17.5H9.5C10.7375 17.5 11.8375 18.1125 12.525 19.05C13.525 18.1 14.875 17.5 16.375 17.5H17V16.25C16.1038 16.25 8.25 16.1625 8.25 13.125Z" fill="#DEA806"/>
<path d="M8.25 8.125V13.125C8.25 16.1625 16.1038 16.25 17 16.25V11.25C16.1038 11.25 8.25 11.1625 8.25 8.125Z" fill="#DEB945"/>
<path d="M8.25 3.125V8.125C8.25 11.1625 16.1038 11.25 17 11.25V6.25C16.1038 6.25 8.25 6.1625 8.25 3.125Z" fill="#DEA806"/>
<path d="M17 0C16.1038 0 8.25 0.0874999 8.25 3.125C8.25 6.1625 16.1038 6.25 17 6.25V0Z" fill="#DEB945"/>
<path d="M20.75 23.125C20.75 21.4025 19.3487 20 17.625 20H16.375C14.6513 20 13.25 21.4025 13.25 23.125V26.875C13.25 28.5975 14.6513 30 16.375 30H17.625C18.045 30 18.445 29.9138 18.8113 29.7638C19.0213 29.9063 19.2563 30 19.5 30C19.82 30 20.14 29.8775 20.3837 29.6338C20.815 29.2025 20.8425 28.5475 20.5137 28.0613C20.665 27.695 20.75 27.295 20.75 26.875V23.125ZM15.75 26.875V23.125C15.75 22.78 16.0312 22.5 16.375 22.5H17.625C17.9688 22.5 18.25 22.78 18.25 23.125V25.8188C17.77 25.5363 17.1525 25.5788 16.7413 25.9913C16.33 26.4038 16.2862 27.0213 16.5687 27.5H16.375C16.0312 27.5 15.75 27.22 15.75 26.875V26.875Z" fill="#2196F3"/>
<path d="M28.25 30H24.5C23.8087 30 23.25 29.44 23.25 28.75V21.25C23.25 20.56 23.8087 20 24.5 20C25.1912 20 25.75 20.56 25.75 21.25V27.5H28.25C28.9412 27.5 29.5 28.06 29.5 28.75C29.5 29.44 28.9412 30 28.25 30Z" fill="#2196F3"/>
<path d="M7.625 30H5.75C5.05875 30 4.5 29.44 4.5 28.75C4.5 28.06 5.05875 27.5 5.75 27.5H7.625C7.96875 27.5 8.25 27.22 8.25 26.875C8.25 26.53 7.96875 26.25 7.625 26.25C5.90125 26.25 4.5 24.8475 4.5 23.125C4.5 21.4025 5.90125 20 7.625 20H9.5C10.1913 20 10.75 20.56 10.75 21.25C10.75 21.94 10.1913 22.5 9.5 22.5H7.625C7.28125 22.5 7 22.78 7 23.125C7 23.47 7.28125 23.75 7.625 23.75C9.34875 23.75 10.75 25.1525 10.75 26.875C10.75 28.5975 9.34875 30 7.625 30Z" fill="#2196F3"/>
<path d="M20.75 25.0786H18.25V25.8199C18.0475 25.7011 17.82 25.6386 17.5938 25.6386C17.285 25.6386 16.9787 25.7536 16.74 25.9911C16.3287 26.4036 16.285 27.0211 16.5675 27.4999H16.375C16.0312 27.4999 15.75 27.2199 15.75 26.8749V25.0786H13.25V26.8749C13.25 28.5974 14.6513 29.9999 16.375 29.9999H17.625C18.045 29.9999 18.445 29.9136 18.8113 29.7636C19.0213 29.9061 19.2563 29.9999 19.5 29.9999C19.82 29.9999 20.14 29.8774 20.3837 29.6336C20.815 29.2024 20.8425 28.5474 20.5137 28.0611C20.665 27.6949 20.75 27.2949 20.75 26.8749V25.0786Z" fill="#1D83D4"/>
<path d="M25.75 25.0786H23.25V28.7499C23.25 29.4399 23.8088 29.9999 24.5 29.9999H28.25C28.9413 29.9999 29.5 29.4399 29.5 28.7499C29.5 28.0599 28.9413 27.4999 28.25 27.4999H25.75V25.0786Z" fill="#1D83D4"/>
<path d="M10.18 25.0786H5.1875C5.76 25.7924 6.64 26.2499 7.625 26.2499C7.96875 26.2499 8.25 26.5299 8.25 26.8749C8.25 27.2199 7.96875 27.4999 7.625 27.4999H5.75C5.05875 27.4999 4.5 28.0599 4.5 28.7499C4.5 29.4399 5.05875 29.9999 5.75 29.9999H7.625C9.34875 29.9999 10.75 28.5974 10.75 26.8749C10.75 26.2061 10.5388 25.5861 10.18 25.0786V25.0786Z" fill="#1D83D4"/>
</g>
<defs>
<filter id="filter0_d" x="-2" y="0" width="38" height="38" filterUnits="userSpaceOnUse" color-interpolation-filters="sRGB">
<feFlood flood-opacity="0" result="BackgroundImageFix"/>
<feColorMatrix in="SourceAlpha" type="matrix" values="0 0 0 0 0 0 0 0 0 0 0 0 0 0 0 0 0 0 127 0"/>
<feOffset dy="4"/>
<feGaussianBlur stdDeviation="2"/>
<feColorMatrix type="matrix" values="0 0 0 0 0 0 0 0 0 0 0 0 0 0 0 0 0 0 0.25 0"/>
<feBlend mode="normal" in2="BackgroundImageFix" result="effect1_dropShadow"/>
<feBlend mode="normal" in="SourceGraphic" in2="effect1_dropShadow" result="shape"/>
</filter>
<clipPath id="clip0">
<rect width="30" height="30" fill="white" transform="translate(2)"/>
</clipPath>
</defs>
</svg>
