<svg width="30" height="30" viewBox="0 0 30 30" fill="none" xmlns="http://www.w3.org/2000/svg">
<path d="M14.9538 0.0380859L0.0994873 4.99387L2.44687 23.4434L14.9695 29.9682L27.5569 23.355L29.9033 4.9061L14.9538 0.0380859Z" fill="#B3B3B3"/>
<path d="M28.4217 5.97203L14.9191 1.60693V28.409L26.2349 22.472L28.4216 5.97203H28.4217Z" fill="#A6120D"/>
<path d="M1.76642 6.05113L3.77794 22.5513L14.919 28.4094V1.60693L1.76654 6.05102L1.76642 6.05113Z" fill="#DD1B16"/>
<path d="M18.636 15.8753L14.9192 17.523H11.0017L9.16022 21.8895L5.73505 21.9495L14.9192 2.58057L18.636 15.8754V15.8753ZM18.2767 15.0457L14.9439 8.79082L12.21 14.9381H14.9191L18.2767 15.0458V15.0457Z" fill="#F2F2F2"/>
<path d="M14.919 2.58008L14.9436 8.79044L18.0456 14.9425H14.926L14.919 17.5186L19.2327 17.5225L21.2488 21.9498L24.5262 22.0074L14.919 2.58008V2.58008Z" fill="#B3B3B3"/>
</svg>
