<svg height="512" viewBox="0 0 512 512" width="512" xmlns="http://www.w3.org/2000/svg"><g id="Filled_outline" data-name="Filled outline"><path d="m320 488h-128l24-64h80z" fill="#d6d6d4"/><path d="m488 104v256h-464v-256a32 32 0 0 1 32-32h400l8 1.01a32.012 32.012 0 0 1 24 30.99z" fill="#4d5e78"/><path d="m24 360v32a32 32 0 0 0 32 32h400a32 32 0 0 0 32-32v-32z" fill="#d6d6d4"/><path d="m302 440h-92l6-16h80z" fill="#c7c7c5"/><path d="m464 73.01v286.99h-24v-288h16z" fill="#485870"/><path d="m440 56v304h-368v-304a32 32 0 0 1 32-32h304a32.448 32.448 0 0 1 6.51.66 32.02 32.02 0 0 1 25.49 31.34z" fill="#348fd9"/><path d="m440 56v304h-366.51l341.02-335.34a32.02 32.02 0 0 1 25.49 31.34z" fill="#3086cd"/><path d="m104 88h304v240h-304z" fill="#4db7e5"/><path d="m104 272 72-48 72 48 80-80 80 80v56h-304z" fill="#5f9548"/><circle cx="196" cy="156" fill="#f35244" r="36"/><path d="m280 192 40 40q12.609-7.2 24.429-15.571l-48.858-48.858q-8.337 11.823-15.571 24.429z" fill="#ffb531"/><path d="m469.936 24a18.065 18.065 0 0 0 -10.715 3.521l-95.3 70.219a305.091 305.091 0 0 0 -68.354 69.831l48.858 48.858a305.091 305.091 0 0 0 69.831-68.354l70.219-95.3a18.064 18.064 0 0 0 -14.539-28.775z" fill="#92563a"/><path d="m280 192-24.795 9.3a53.047 53.047 0 0 0 -34.012 56.249 46.265 46.265 0 0 1 -13.193 38.451h54.582a53.045 53.045 0 0 0 51.463-40.181l5.955-23.819z" fill="#e0e0de"/><path d="m275.932 260.983-5.042-1.261a19.656 19.656 0 0 1 -14.89-19.07 19.658 19.658 0 0 0 -16.426-19.39l-8.678-1.446a52.989 52.989 0 0 0 -9.7 37.731 46.265 46.265 0 0 1 -13.196 38.453h54.582a52.929 52.929 0 0 0 29.961-9.284l-2.1-10.518a19.658 19.658 0 0 0 -14.511-15.215z" fill="#88c25e"/><path d="m72 328h368v32h-368z" fill="#3086cd"/><path d="m479.244 97.994a24.148 24.148 0 0 1 .756 6.006v248h-448v-248a24.028 24.028 0 0 1 24-24h8v256h16v-280a24.028 24.028 0 0 1 24-24h304a24.056 24.056 0 0 1 6 .756l4-15.494a40.059 40.059 0 0 0 -10-1.262h-304a40.045 40.045 0 0 0 -40 40v8h-8a40.045 40.045 0 0 0 -40 40v288a40.045 40.045 0 0 0 40 40h148.456l-18 48h-18.456v16h176v-16h-18.456l-18-48h148.456a40.045 40.045 0 0 0 40-40v-288a40.113 40.113 0 0 0 -1.262-9.994zm-170.788 382.006h-104.912l18-48h68.912zm171.544-88a24.028 24.028 0 0 1 -24 24h-400a24.028 24.028 0 0 1 -24-24v-24h448z"/><path d="m432 152h16v184h-16z"/><path d="m104 48h16v16h-16z"/><path d="m136 48h16v16h-16z"/><path d="m168 48h16v16h-16z"/><path d="m96 88v240a8 8 0 0 0 8 8h304a8 8 0 0 0 8-8v-128h-16v52.686l-26.343-26.343-11.314 11.314 37.657 37.657v44.686h-288v-43.719l64-42.666 19.562 13.042 8.876-13.313-24-16a8 8 0 0 0 -8.876 0l-59.562 39.708v-161.052h224v-16h-232a8 8 0 0 0 -8 8z"/><path d="m152 156a44 44 0 1 0 44-44 44.049 44.049 0 0 0 -44 44zm72 0a28 28 0 1 1 -28-28 28.032 28.032 0 0 1 28 28z"/><path d="m274.542 185.5-22.142 8.308a60.848 60.848 0 0 0 -39.141 64.732 38.019 38.019 0 0 1 -10.911 31.8 8 8 0 0 0 5.652 13.66h54.582a60.958 60.958 0 0 0 59.224-46.241l5.142-20.566a311.1 311.1 0 0 0 93.752-84.372l70.219-95.3a26.064 26.064 0 0 0 -36.444-36.443l-95.295 70.222a311.14 311.14 0 0 0 -84.638 94.2zm22.19-5.457 35.222 35.222c-3.5 2.3-7.049 4.547-10.663 6.709l-31.269-31.269q3.245-5.416 6.71-10.659zm-73.099 107.957a53.97 53.97 0 0 0 5.5-31.445 44.957 44.957 0 0 1 5.583-27.992l3.544.591a11.621 11.621 0 0 1 9.741 11.5 27.618 27.618 0 0 0 20.95 26.832l5.041 1.26a11.71 11.71 0 0 1 8.6 9.023l1.008 5.031a44.979 44.979 0 0 1 -21.02 5.2zm73.811-16.507a27.791 27.791 0 0 0 -19.572-18.271l-5.042-1.261a11.64 11.64 0 0 1 -8.83-11.309 27.557 27.557 0 0 0 -17.311-25.652 45.34 45.34 0 0 1 11.325-6.207l19.971-7.49 33.156 33.155-4.857 19.425a45 45 0 0 1 -8.84 17.61zm166.523-237.531a10.064 10.064 0 0 1 14.071 14.072l-70.219 95.3a295.253 295.253 0 0 1 -62.519 62.652l-39.286-39.286a295.3 295.3 0 0 1 62.656-62.52z"/><path d="m387.6 129.3-9.6-12.8c-4.655 3.493-9.258 7.165-13.68 10.917l10.35 12.2c4.176-3.542 8.53-7.017 12.93-10.317z"/><path d="m340.357 174.534a270.233 270.233 0 0 1 22.743-24.515l-11.033-11.588a286.273 286.273 0 0 0 -24.09 25.972z"/></g></svg>