<svg width="30" height="30" viewBox="0 0 30 30" fill="none" xmlns="http://www.w3.org/2000/svg">
<path d="M28.0835 0H1.9152C0.858402 0 0 0.857106 0 1.9152V28.0848C0 29.1403 0.858402 30 1.9152 30H28.0835C29.1403 30 29.9987 29.1416 29.9987 28.0848V1.9139C29.9974 0.857106 29.1403 0 28.0835 0ZM13.6216 16.9087C13.6216 17.7425 13.5425 18.4531 13.3843 19.0392C13.2261 19.6253 12.9863 20.096 12.6673 20.4642C12.347 20.8273 11.9463 21.0957 11.4691 21.263C10.9907 21.4328 10.4344 21.5158 9.80031 21.5158C9.24274 21.5158 8.73963 21.4276 8.28708 21.2526C7.83454 21.0775 7.45202 20.8273 7.13563 20.5005C6.81795 20.1725 6.57417 19.777 6.40301 19.3128C6.23055 18.8473 6.14497 18.3273 6.14497 17.758V17.3846H7.94217C7.94217 19.0573 8.56198 19.895 9.80161 19.895C10.1193 19.895 10.4007 19.8587 10.6496 19.7822C10.8973 19.7044 11.1074 19.563 11.2798 19.3517C11.4523 19.1416 11.582 18.8511 11.6714 18.4751C11.7609 18.0991 11.8063 17.6089 11.8063 17.0034V7.64393H13.6242V16.9087H13.6216ZM23.6515 19.6253C23.466 20.0039 23.2015 20.3345 22.8631 20.6172C22.522 20.8999 22.1058 21.119 21.617 21.2798C21.1294 21.4367 20.5796 21.5158 19.9741 21.5158C17.2899 21.5158 15.8727 20.4564 15.7287 18.3351H17.4948C17.5026 19.5332 18.3234 20.1336 19.9546 20.1336C20.3164 20.1336 20.6406 20.0947 20.9193 20.013C21.1981 19.9339 21.4315 19.8237 21.6157 19.6836C21.8024 19.5436 21.9424 19.3763 22.0397 19.1857C22.1343 18.9964 22.1849 18.7902 22.1849 18.5646C22.1849 18.3273 22.1473 18.1393 22.076 17.9966C22.0034 17.8527 21.8607 17.7243 21.6507 17.6128C21.4419 17.5026 21.1502 17.3937 20.7793 17.2886C20.4072 17.1797 19.9209 17.0462 19.3218 16.8893C18.7383 16.744 18.2326 16.5988 17.8099 16.4536C17.3846 16.3109 17.0371 16.1359 16.7661 15.9297C16.4938 15.7223 16.2915 15.4681 16.1605 15.166C16.0296 14.8626 15.9647 14.48 15.9647 14.0184C15.9647 13.6126 16.0503 13.2352 16.2228 12.8877C16.3952 12.5402 16.6403 12.2394 16.9619 11.9839C17.2809 11.7285 17.6686 11.5301 18.1224 11.3849C18.5801 11.2396 19.0858 11.1683 19.6421 11.1683C22.2381 11.1683 23.5581 12.0902 23.5983 13.9367H21.862C21.7998 13.0148 21.1048 12.5519 19.7757 12.5519C19.48 12.5519 19.2077 12.5817 18.9549 12.64C18.702 12.6984 18.4855 12.7827 18.2988 12.8929C18.112 13.0031 17.9694 13.1393 17.8644 13.3013C17.7619 13.4634 17.7101 13.6515 17.7101 13.8641C17.7101 14.0573 17.7347 14.2155 17.7827 14.3387C17.8307 14.4632 17.9461 14.5799 18.1289 14.6862C18.3117 14.7925 18.5827 14.8976 18.9393 15.0013C19.2972 15.105 19.786 15.2321 20.4072 15.3838C21.0062 15.5278 21.5262 15.6782 21.9684 15.8325C22.4079 15.9881 22.7736 16.1761 23.0679 16.3965C23.361 16.6157 23.5762 16.8841 23.7189 17.2018C23.8589 17.5182 23.9302 17.9149 23.9302 18.3895C23.9302 18.8343 23.8356 19.2466 23.6515 19.6253Z" fill="#030104"/>
</svg>
