<svg width="45" height="30" viewBox="0 0 45 30" fill="none" xmlns="http://www.w3.org/2000/svg">
<path d="M19.2429 11.7186L19.243 11.7173L18.9548 14.7326L19.2429 11.7186Z" fill="white"/>
<path d="M20.7247 18.2645L20.4072 18.2588L20.7247 18.2645Z" fill="white"/>
<path d="M20.643 22.7676H20.6433L18.7413 22.788L20.643 22.7676Z" fill="white"/>
<path d="M21.0418 18.2706L20.7242 18.2651L21.0418 18.2706Z" fill="white"/>
<path d="M20.8098 22.3858L21.141 18.6543L20.8098 22.3866V22.3858Z" fill="white"/>
<path d="M27.8124 5.19922L27.1953 13.7677L27.8124 5.19922Z" fill="white"/>
<path d="M26.226 5.19974L25.7574 11.6007L26.226 5.19922V5.19974Z" fill="white"/>
<path d="M27.7067 4.81494H26.3869C26.3137 4.81494 26.241 4.98849 26.2255 5.19974L25.7568 11.6013L25.2883 18.003C25.2729 18.2143 25.2003 18.3876 25.127 18.3876H24.3263H24.1929C23.2687 18.3876 23.3756 16.4994 23.565 13.9132C23.5668 13.8873 23.5687 13.8619 23.5705 13.8352L23.5912 13.509C23.5926 13.4881 23.594 13.4671 23.5951 13.448L23.6374 12.7842L23.6826 12.073C23.6963 11.8586 23.7172 11.545 23.7309 11.3479L23.9437 8.27446L24.157 5.20105C24.1717 4.98902 24.1237 4.81494 24.0503 4.81494H22.6957C22.6226 4.81494 22.55 4.98902 22.5351 5.20053L22.2437 9.28148L21.9524 13.3616C21.9522 13.3637 21.952 13.3664 21.952 13.3679L21.925 13.7472C21.5894 18.2703 21.6784 22.584 23.5018 22.7188C23.5316 22.7214 23.5547 22.7222 23.5547 22.7222H26.4168C26.4901 22.7222 26.5625 22.5484 26.5777 22.3369L27.1951 13.7689L27.8122 5.20026C27.8276 4.98849 27.7801 4.81494 27.7067 4.81494Z" fill="white"/>
<path d="M32.9717 18.4321C33.0443 18.4321 33.0919 18.6054 33.0773 18.8174L32.9501 20.6671" fill="white"/>
<path d="M32.8221 22.5177L32.9491 20.667L32.822 22.5182C32.822 22.5177 32.8221 22.5177 32.8221 22.5177Z" fill="white"/>
<path d="M32.6615 22.9068C32.6618 22.9068 32.662 22.9062 32.6622 22.9062C32.2737 22.9154 31.1065 22.9419 30.2293 22.9419C31.2969 22.9419 32.6615 22.9073 32.6615 22.9073V22.9068Z" fill="white"/>
<path d="M29.442 16.0499C29.4409 15.8473 29.519 15.4981 29.5923 15.4981L29.4275 15.4902C29.3533 17.6961 29.442 16.0499 29.442 16.0499Z" fill="white"/>
<path d="M32.9719 18.4321C33.0451 18.4321 33.0931 18.6054 33.0784 18.8174L32.9502 20.6671L32.9293 20.9687" fill="white"/>
<path d="M30.9692 22.9375C30.8625 22.9382 30.7559 22.9391 30.6507 22.9394C30.7559 22.9391 30.8625 22.9382 30.9692 22.9375Z" fill="white"/>
<path d="M32.6625 22.9062C32.3778 22.9128 31.6748 22.9285 30.9739 22.9364C31.6745 22.929 32.3776 22.9131 32.6625 22.9062Z" fill="white"/>
<path d="M32.8221 22.5194L32.9285 20.9692L32.822 22.5202C32.822 22.5197 32.8221 22.5197 32.8221 22.5189V22.5194Z" fill="white"/>
<path d="M11.1178 16.096L11.3228 13.4121L11.0884 16.48L10.8635 19.605L11.0607 16.8656C11.0759 16.6536 11.1017 16.3073 11.1178 16.096Z" fill="#131B28"/>
<path d="M13.5715 4.76953H12.122C12.0487 4.76953 11.9756 4.94256 11.9592 5.15302L11.8218 6.94429L11.6843 8.73635C11.6682 8.94707 11.7149 9.11984 11.7882 9.11984H13.2488C13.322 9.11984 13.3949 8.94681 13.4106 8.73556L13.5435 6.94403L13.6763 5.15407V5.15354C13.6919 4.94256 13.6448 4.76953 13.5715 4.76953Z" fill="white"/>
<path d="M13.2562 10.73V10.7295L12.8312 16.5373L13.2562 10.73Z" fill="white"/>
<path d="M9.04566 29.9724C9.04566 29.9724 9.77632 29.9999 10.2407 29.9999C9.88801 29.9999 9.3052 29.9811 9.04504 29.9722C9.04531 29.9722 9.04549 29.9724 9.04566 29.9724Z" fill="#131B28"/>
<path d="M11.5277 10.7295L11.3225 13.4131L11.5277 10.7295Z" fill="#131B28"/>
<path d="M13.1512 10.3433H11.6904C11.6172 10.3433 11.544 10.5163 11.5278 10.7275L11.3226 13.4114L11.1177 16.0953C11.1016 16.3063 11.0757 16.6526 11.0604 16.8644L10.8633 19.6041L10.6663 22.3435C10.6509 22.5544 10.6195 22.896 10.5961 23.1013C10.5961 23.1013 10.3231 25.4993 9.86435 25.4721C9.84484 25.4708 9.82588 25.4703 9.80708 25.469C9.58487 25.4561 9.41007 25.447 9.41007 25.447H9.40971C9.33668 25.4438 9.26302 25.6127 9.246 25.8226L9.09442 27.7039L8.94312 29.5837C8.9261 29.7939 8.9721 29.9674 9.04479 29.9708C9.30503 29.9797 9.88775 29.9991 10.2404 29.9991C11.3865 29.9991 11.9906 28.1241 12.3778 22.7288L12.831 16.5361L13.256 10.7281C13.2716 10.5163 13.2243 10.3435 13.1512 10.3433Z" fill="white"/>
<path d="M33.9026 22.7214C33.8293 22.7214 33.7817 22.5478 33.7972 22.3358L34.8961 7.13525" fill="white"/>
<path d="M35.4297 22.3363L35.8742 15.8481L35.4297 22.3363Z" fill="white"/>
<path d="M33.8131 22.5306C33.8042 22.4248 33.8093 22.1652 33.8249 21.9531L34.3466 14.7378L33.7971 22.3382C33.7817 22.55 33.8292 22.7235 33.9024 22.7235H34.0359C33.9625 22.7233 33.8221 22.6366 33.8131 22.5306Z" fill="white"/>
<path d="M35.343 22.6357C35.303 22.6834 35.2104 22.7224 35.137 22.7224H35.2705C35.3437 22.7224 35.4157 22.5488 35.4301 22.3363L35.4567 21.9507C35.442 22.1627 35.3829 22.5878 35.343 22.6357Z" fill="white"/>
<path d="M35.6524 19.0927L35.8487 16.2295C35.8485 16.2313 35.8485 16.2337 35.8483 16.235L35.6524 19.0927Z" fill="white"/>
<path d="M39.9879 8.1543L40.048 8.893C40.0645 9.10451 40.0186 9.27597 39.9462 9.2765" fill="white"/>
<path d="M35.4564 21.951L35.652 19.0928L35.4564 21.951Z" fill="white"/>
<path d="M39.9281 7.39648L39.9875 8.15299L39.9281 7.39648Z" fill="white"/>
<path d="M35.8483 16.2284C35.8628 16.0166 35.8871 15.6729 35.9022 15.4635L36.1117 12.5645L35.8744 15.8481L35.8483 16.2284Z" fill="white"/>
<path d="M34.9142 6.88623C34.8995 7.09067 34.8809 7.3493 34.8683 7.52023L34.3469 14.7356L34.8963 7.13517L34.9142 6.88623Z" fill="white"/>
<path d="M40.0485 8.89384L39.9879 8.15514L39.928 7.39863L39.8975 7.01567C39.779 5.65448 39.4307 4.86866 38.6744 4.86866L37.497 4.86499L36.4126 4.86133H36.3195H35.1924C35.1192 4.86133 35.0467 5.03409 35.0318 5.24613L34.9777 5.99897L34.914 6.88819L34.8963 7.13739L34.3468 14.7378L33.8253 21.9531C33.8098 22.1654 33.8047 22.4248 33.8135 22.5306C33.8224 22.6366 33.9629 22.7232 34.0363 22.7232H35.1369C35.2103 22.7232 35.3031 22.6842 35.3429 22.6366C35.3828 22.589 35.4419 22.1636 35.4565 21.9518L35.6522 19.0933L35.848 16.2356C35.8481 16.2346 35.8482 16.2319 35.8484 16.2301L35.8745 15.8498L36.1118 12.5662L36.3215 9.66606C36.337 9.45533 36.409 9.28309 36.4823 9.28257L39.9458 9.27733C40.0189 9.27655 40.0652 9.10509 40.0485 8.89384Z" fill="white"/>
<path d="M44.5073 2.21294C44.4338 2.21451 44.314 2.21582 44.2406 2.21582H43.132C43.0586 2.21582 42.9647 2.36215 42.9234 2.54067L40.472 13.147C40.4306 13.326 40.3832 13.299 40.3669 13.0883L40.1866 10.7518C40.1704 10.5405 40.0969 10.3683 40.0238 10.3683H38.4478C38.3744 10.3683 38.331 10.5382 38.3511 10.7463L39.0572 18.0519C39.0774 18.2601 39.0789 18.6024 39.0607 18.8119L38.7529 22.3478C38.7346 22.5575 38.7797 22.7292 38.8531 22.7292H40.4106C40.4837 22.7292 40.5587 22.5575 40.5768 22.3478L40.8849 18.8119C40.903 18.6022 40.9541 18.2889 40.9981 18.1158L44.9778 2.51711C45.022 2.34409 44.9981 2.20378 44.9249 2.20509L44.5073 2.21294Z" fill="white"/>
<path d="M31.9869 11.3641V11.3597C31.9777 11.5945 31.9043 11.7667 31.831 11.7667H29.833C29.7639 11.7667 29.7288 11.628 29.7389 11.4568C29.7395 11.4518 29.7397 11.4474 29.7408 11.4432C29.7408 11.4432 29.7401 11.4437 29.7394 11.4447C29.7399 11.4379 29.7399 11.4319 29.7406 11.4251C29.7406 11.4251 29.7443 11.3835 29.7497 11.3246C29.9405 9.82623 30.3292 8.84303 31.0598 8.84303C31.8823 8.84355 32.0426 10.0301 31.9869 11.3641ZM31.4006 4.55371C28.836 4.55371 28.2282 9.15086 27.8872 13.7907C27.5463 18.5198 27.5757 22.9415 30.2296 22.9415H30.3237C30.3323 22.941 30.3407 22.941 30.3491 22.941H30.4235H30.4507H30.5203C30.5307 22.9405 30.541 22.9405 30.5514 22.9405C30.578 22.9405 30.6046 22.94 30.6313 22.94H30.6502C30.7552 22.9394 30.8619 22.9381 30.9685 22.9371H30.9739C31.6749 22.929 32.3778 22.913 32.6627 22.9065C32.7353 22.9033 32.8065 22.73 32.8216 22.5198L32.929 20.9691L32.9499 20.6671L33.078 18.8177C33.0928 18.6054 33.0448 18.4321 32.9715 18.4321H30.5856C29.6367 18.4321 29.3548 17.6874 29.4586 15.4982H33.2726L33.2723 15.4992C33.2733 15.4992 33.2741 15.4982 33.275 15.4982C33.3355 15.4948 33.3917 15.3715 33.4137 15.2074C33.4179 15.1757 33.4215 15.143 33.4229 15.1092L33.4225 15.1103C33.9887 8.80219 33.8264 4.55397 31.4004 4.55397L31.4006 4.55371Z" fill="white"/>
<path d="M19.2791 11.34L19.243 11.7172C19.243 11.7185 19.2429 11.7185 19.2429 11.7185L18.9549 14.7325L18.667 17.7462C18.6471 17.9543 18.5709 18.1245 18.4975 18.1245H16.9731C15.817 18.1245 15.5354 15.4542 15.817 11.5149C16.0984 7.486 16.6504 4.98142 17.7884 4.72751C19.3435 4.38145 19.6546 7.61139 19.2791 11.34ZM20.3244 17.8928C20.3244 17.8928 21.0431 12.7394 21.2064 9.76285C21.429 5.77824 20.7534 0 18.1442 0C15.5497 0 14.4232 5.517 13.9933 11.5146C13.5634 17.5554 14.1267 22.8533 16.7062 22.8101L18.7414 22.7878L20.6433 22.7674C20.7166 22.7653 20.7915 22.5941 20.8102 22.385L21.1415 18.6527C21.1599 18.443 21.1152 18.2708 21.042 18.2697L20.7244 18.2642L20.4069 18.2588C20.3445 18.2572 20.309 18.1386 20.3164 17.9805C20.3179 17.952 20.32 17.9226 20.3244 17.8928Z" fill="white"/>
<path d="M33.1677 14.4441C33.1677 14.5868 33.1286 14.7025 33.0802 14.7025C33.0319 14.7025 32.9928 14.5868 32.9928 14.4441C32.9928 14.3017 33.0319 14.1865 33.0802 14.1865C33.1285 14.1865 33.1677 14.3017 33.1677 14.4441Z" fill="white"/>
<path d="M0.513816 7.74381C-0.202568 10.7845 -0.113308 14.7403 0.433863 17.9713C0.446893 18.0488 0.460544 18.125 0.474017 18.2014C0.482615 18.2496 0.490681 18.2991 0.499634 18.3467C0.504686 18.3752 0.510359 18.4032 0.515589 18.4305C0.524896 18.482 0.534469 18.531 0.544131 18.5812C0.56115 18.6697 0.578611 18.7577 0.596339 18.8456C0.606178 18.894 0.615929 18.9422 0.626122 18.9906C0.645889 19.0846 0.666099 19.1781 0.686752 19.2707C0.69535 19.3103 0.70377 19.35 0.712634 19.3883C0.741176 19.5139 0.770339 19.6396 0.800387 19.7629C0.801185 19.766 0.802072 19.7691 0.802869 19.7723C0.807656 19.7922 0.812886 19.8115 0.817672 19.8314C0.843643 19.9375 0.87059 20.0422 0.897625 20.1458C0.907641 20.1835 0.917746 20.2212 0.927762 20.2592C0.951961 20.3492 0.976603 20.4385 1.00169 20.5275C1.01108 20.5607 1.02048 20.5942 1.02996 20.627C1.06356 20.7437 1.09795 20.8604 1.13305 20.9746C1.13367 20.9767 1.13447 20.979 1.13509 20.9809C1.13651 20.9858 1.13775 20.9887 1.13899 20.9934C1.1732 21.1039 1.20822 21.212 1.24376 21.3198C1.25475 21.3531 1.26601 21.3866 1.27727 21.4198C1.30475 21.5015 1.33267 21.5814 1.36085 21.662C1.37229 21.6939 1.38364 21.7269 1.39507 21.7578C1.43274 21.8625 1.47077 21.9654 1.50959 22.0656C1.5103 22.0677 1.51074 22.0693 1.51145 22.0701C1.51801 22.0874 1.52484 22.1041 1.5314 22.1201C1.56561 22.2078 1.60045 22.2947 1.63546 22.38C1.64973 22.414 1.66418 22.4478 1.67854 22.4816C1.70717 22.5494 1.73615 22.6161 1.76532 22.6818C1.78074 22.7166 1.79616 22.7515 1.81167 22.786C1.84385 22.8556 1.87629 22.9247 1.909 22.992C1.92097 23.0177 1.93249 23.042 1.94446 23.0664C1.94774 23.0732 1.95075 23.0805 1.95412 23.087C1.98523 23.1499 2.01688 23.2111 2.04861 23.2716C2.06226 23.2985 2.07582 23.326 2.08956 23.3522C2.13822 23.443 2.18759 23.5328 2.23759 23.62C2.25115 23.6428 2.26489 23.6653 2.27845 23.6881C2.31515 23.7506 2.35211 23.8121 2.38952 23.8721C2.40973 23.9043 2.43056 23.9346 2.45094 23.9653C2.47745 24.0064 2.50368 24.0477 2.53045 24.0873C2.53657 24.0964 2.54286 24.105 2.54889 24.1137C2.55961 24.1291 2.57052 24.1441 2.58142 24.1603C2.62308 24.2192 2.66501 24.2765 2.70738 24.3325C2.71642 24.3443 2.7251 24.3561 2.73406 24.3676C2.78254 24.4302 2.83156 24.4909 2.88102 24.5482C2.8929 24.5624 2.90487 24.5757 2.91683 24.5898C2.96257 24.6417 3.00893 24.6932 3.05546 24.7414C3.0614 24.7474 3.06708 24.7532 3.07293 24.7589C3.12407 24.8118 3.17566 24.8608 3.2276 24.9084C3.24001 24.9191 3.25242 24.9309 3.26492 24.9417C3.31784 24.9888 3.37005 25.0448 3.42465 25.0746C6.88903 26.9403 7.89535 18.9265 7.89535 18.9265C7.05018 22.1782 5.54996 23.036 4.12853 22.0811C4.07464 22.0452 4.02243 21.9957 3.96987 21.9497C3.95648 21.9379 3.94345 21.9261 3.93025 21.9141C3.87892 21.8675 3.82813 21.8188 3.77752 21.7672C3.77061 21.7601 3.7636 21.7523 3.75651 21.745C3.71122 21.6978 3.66646 21.6484 3.62178 21.5976C3.60919 21.5827 3.59661 21.5688 3.58402 21.5539C3.53509 21.4968 3.48652 21.4374 3.43856 21.3751C3.42864 21.3628 3.41924 21.3497 3.40949 21.3369C3.36827 21.2819 3.3275 21.2264 3.28672 21.1685C3.27502 21.1518 3.26323 21.1353 3.25136 21.1183C3.21954 21.0725 3.18789 21.0238 3.15651 20.9759C3.13542 20.9432 3.11405 20.912 3.09322 20.878C3.05475 20.8173 3.01708 20.7539 2.9795 20.6895C2.96674 20.6683 2.95388 20.6482 2.94103 20.6264C2.89113 20.5395 2.84175 20.4495 2.79291 20.3584C2.77944 20.333 2.76623 20.306 2.75294 20.2798C2.71757 20.2123 2.68229 20.1437 2.64763 20.0728C2.63611 20.0503 2.62494 20.0251 2.61368 20.0024C2.58018 19.9325 2.54703 19.8615 2.51405 19.7898C2.49916 19.7574 2.48445 19.7236 2.46991 19.6911C2.43977 19.6228 2.40973 19.5545 2.38003 19.4836C2.36665 19.4521 2.35317 19.4205 2.33997 19.3888C2.30221 19.2969 2.26489 19.205 2.22801 19.1105C2.2242 19.1003 2.21995 19.0906 2.21578 19.0802C2.17598 18.9765 2.13672 18.8705 2.09807 18.764C2.08681 18.7323 2.07591 18.7016 2.06492 18.6697C2.0362 18.5894 2.00801 18.5082 1.98036 18.425C1.96928 18.3922 1.95811 18.3598 1.9472 18.3273C1.91193 18.2205 1.87736 18.1127 1.84341 18.003C1.84172 17.9975 1.83995 17.9928 1.83827 17.9868C1.80237 17.8711 1.76736 17.7525 1.73296 17.6329C1.72366 17.6001 1.71461 17.5685 1.7054 17.5363C1.67978 17.4452 1.65443 17.353 1.6297 17.2596C1.62039 17.2263 1.61108 17.1918 1.60187 17.1575C1.57208 17.0431 1.54292 16.9295 1.51438 16.8135C0.725221 13.6346 0.441664 9.25002 1.07242 5.64941" fill="white"/>
<path d="M2.73752 5.18176C2.21942 7.38349 2.24761 10.3305 2.65171 12.6589C2.71952 13.0492 2.79566 13.428 2.88085 13.7884C2.95841 14.117 3.04447 14.5078 3.14747 14.7716C3.18488 14.8931 3.22388 15.0117 3.26377 15.1279C3.27387 15.1585 3.28416 15.1876 3.29444 15.2177C3.33308 15.3282 3.37244 15.4373 3.41313 15.5431C3.41481 15.5473 3.41632 15.552 3.418 15.5554C3.41844 15.5569 3.41889 15.5575 3.41915 15.559C3.46418 15.6753 3.51063 15.7876 3.55787 15.8978C3.56833 15.9213 3.5787 15.9462 3.58934 15.9703C3.63668 16.0773 3.68489 16.1828 3.73444 16.2831C3.73595 16.2862 3.73719 16.2891 3.73861 16.2928C3.76042 16.337 3.78275 16.3786 3.80482 16.4213C3.81546 16.4417 3.82557 16.4634 3.8362 16.4826C3.87148 16.5493 3.90729 16.6145 3.94372 16.677C3.94886 16.6865 3.95392 16.6941 3.95888 16.703C3.99026 16.7564 4.02208 16.809 4.05399 16.86C4.06507 16.8786 4.07642 16.8948 4.08776 16.9121C4.10983 16.9461 4.13181 16.9807 4.15424 17.0139C4.15752 17.0187 4.16098 17.0231 4.16426 17.0273C4.20991 17.0938 4.256 17.1577 4.30298 17.2181C4.31299 17.2312 4.32336 17.243 4.33365 17.2556C4.37114 17.3027 4.40917 17.3485 4.44728 17.3919C4.4635 17.41 4.47981 17.4273 4.49603 17.4448C4.5306 17.4828 4.56544 17.5173 4.60045 17.5521C4.61632 17.5671 4.63183 17.5822 4.6477 17.5966C4.69751 17.6422 4.74671 17.7 4.79865 17.7254C7.47343 19.0343 8.09107 12.9523 8.09107 12.9523C7.53433 15.3195 6.45638 16.4496 5.30602 15.5677C5.25497 15.5281 5.20462 15.485 5.15463 15.4384C5.13929 15.4245 5.12422 15.4098 5.10906 15.3949C5.07352 15.3609 5.03815 15.3245 5.00305 15.2871C4.98701 15.27 4.97096 15.2525 4.95519 15.2347C4.91672 15.191 4.87878 15.146 4.84111 15.0986C4.83083 15.0855 4.82045 15.074 4.81035 15.0604C4.76311 14.9999 4.71666 14.9355 4.67074 14.8693C4.64716 14.835 4.62403 14.7989 4.60081 14.764C4.58742 14.7434 4.57386 14.7229 4.56039 14.7025C4.5306 14.6546 4.501 14.6054 4.47175 14.5552C4.46483 14.5434 4.45765 14.5324 4.45065 14.5198C4.4144 14.4573 4.37868 14.3929 4.3434 14.3266C4.33249 14.306 4.32204 14.2837 4.31113 14.2628C4.28782 14.218 4.26451 14.1727 4.24164 14.1269C4.19236 14.0266 4.14431 13.9214 4.09707 13.8146C4.08617 13.7892 4.07517 13.7646 4.06454 13.7392C3.56098 12.5652 3.16192 10.9606 2.97214 9.14153C2.77324 7.2547 2.81605 5.13674 3.16059 3.41797" fill="white"/>
<path d="M4.60773 3.26701C4.30236 4.59417 4.27232 6.24278 4.48425 7.70867C4.70771 9.26462 5.16562 10.4852 5.70012 11.0637C5.72219 11.0881 5.74418 11.1096 5.76651 11.1321C5.77626 11.141 5.78592 11.1506 5.79576 11.1593C5.82723 11.1886 5.85852 11.2226 5.89105 11.2407C7.36796 12.0836 7.76861 9.00233 7.87525 8.54894C7.52432 10.041 6.9346 10.3991 6.21104 9.88056C6.15387 9.8392 6.09102 9.77847 6.03598 9.72088C5.96533 9.64654 5.89575 9.56172 5.82803 9.46592C5.69959 9.28346 5.57709 9.06227 5.46354 8.80914C4.81612 7.35843 4.41378 4.5905 4.83633 2.33643" fill="white"/>
</svg>
