<svg width="34" height="36" viewBox="0 0 34 36" fill="none" xmlns="http://www.w3.org/2000/svg">
<g filter="url(#filter0_d)">
<path d="M29.4888 14.7719C29.5319 12.1087 28.9319 8.94188 27.6819 5.22625L26.7019 2.3125L25.3706 5.08313C25.2994 5.23125 25.2181 5.37625 25.1331 5.51938C22.9463 3.64188 20.1088 2.5 17 2.5C10.0963 2.5 4.5 8.09625 4.5 15C4.5 21.9037 10.0963 27.5 17 27.5C23.9038 27.5 29.5 21.9037 29.5 15C29.5 14.9231 29.49 14.8487 29.4888 14.7719Z" fill="#8BC34A"/>
<path d="M26.6156 20.3487C24.6638 23.0375 21.2088 23.1819 17.9569 23.125H13.7188H12.5075C15.275 22.1294 16.9219 21.8925 18.6038 21C21.7713 19.3344 24.9025 15.69 25.5544 11.8988C24.3481 15.5463 20.6925 18.68 17.3613 19.9544C15.0788 20.825 10.9563 21.67 10.9563 21.67L10.7894 21.5794C7.98314 20.1675 7.89814 13.8838 13 11.855C15.2338 10.9656 17.3706 11.4544 19.7838 10.8594C22.36 10.2269 25.34 8.22937 26.5525 5.625C27.91 9.79187 29.5438 16.3162 26.6156 20.3487ZM11.7925 24.0281C11.6163 24.2469 11.3469 24.375 11.0656 24.375C10.5513 24.375 10.1313 23.9519 10.1313 23.4375C10.1313 22.9231 10.5544 22.5 11.0656 22.5C11.2788 22.5 11.4888 22.5737 11.6538 22.71C12.0538 23.0344 12.1163 23.6281 11.7925 24.0281Z" fill="white"/>
</g>
<defs>
<filter id="filter0_d" x="-2" y="0" width="38" height="38" filterUnits="userSpaceOnUse" color-interpolation-filters="sRGB">
<feFlood flood-opacity="0" result="BackgroundImageFix"/>
<feColorMatrix in="SourceAlpha" type="matrix" values="0 0 0 0 0 0 0 0 0 0 0 0 0 0 0 0 0 0 127 0"/>
<feOffset dy="4"/>
<feGaussianBlur stdDeviation="2"/>
<feColorMatrix type="matrix" values="0 0 0 0 0 0 0 0 0 0 0 0 0 0 0 0 0 0 0.25 0"/>
<feBlend mode="normal" in2="BackgroundImageFix" result="effect1_dropShadow"/>
<feBlend mode="normal" in="SourceGraphic" in2="effect1_dropShadow" result="shape"/>
</filter>
</defs>
</svg>
