<svg width="30" height="30" viewBox="0 0 30 30" fill="none" xmlns="http://www.w3.org/2000/svg">
<path d="M14.9997 29.9994C23.2838 29.9994 29.9994 23.2838 29.9994 14.9997C29.9994 6.7156 23.2838 0 14.9997 0C6.7156 0 0 6.7156 0 14.9997C0 23.2838 6.7156 29.9994 14.9997 29.9994Z" fill="black"/>
<path d="M20.1986 9.21783C20.6289 9.81545 20.8431 10.5308 20.8431 11.3634C20.8431 12.2216 20.6261 12.9113 20.1925 13.4324C19.9498 13.7248 19.5926 13.9921 19.12 14.2337C19.8376 14.4943 20.3789 14.9078 20.7438 15.4731C21.1087 16.0394 21.2912 16.7258 21.2912 17.5327C21.2912 18.3658 21.0825 19.1129 20.6657 19.7742C20.3995 20.2127 20.0681 20.5816 19.6702 20.8801C19.221 21.2233 18.692 21.4588 18.0816 21.586C17.4717 21.7138 16.8099 21.7768 16.0951 21.7768H9.76172V7.7207H16.5543C18.2696 7.74637 19.4838 8.24523 20.1986 9.21783ZM12.5663 10.162V13.2611H15.9829C16.5934 13.2611 17.0883 13.1451 17.4694 12.9129C17.85 12.6808 18.0403 12.269 18.0403 11.6781C18.0403 11.0235 17.7886 10.5911 17.2847 10.3813C16.8506 10.2351 16.2965 10.162 15.6236 10.162H12.5663ZM12.5663 15.588V19.3361H15.979C16.5883 19.3361 17.0627 19.2535 17.4025 19.0884C18.0185 18.7831 18.326 18.1984 18.326 17.3334C18.326 16.6025 18.028 16.1003 17.4309 15.8268C17.0978 15.6745 16.6296 15.5947 16.0259 15.588H12.5663Z" fill="white"/>
</svg>
